/* XPM */
static char * close_prelight_xpm[] = {
"20 23 21 1",
" 	c None",
".	c #464646",
"+	c #404040",
"@	c #3B3B3B",
"#	c #868686",
"$	c #8B8B8B",
"%	c #E7E7E7",
"&	c #CDCDCD",
"*	c #C4C4C4",
"=	c #949494",
"-	c #373737",
";	c #CECECE",
">	c #D5D5D5",
",	c #C7C7C7",
"'	c #D0D0D0",
")	c #D6D6D6",
"!	c #D1D1D1",
"~	c #8D8D8D",
"{	c #9B9B9B",
"]	c #969696",
"^	c #9D9D9D",
"....................",
"++++++++++++++++++++",
"@@@@@@@@@@@@@@@@@@@@",
"@@@@@@@@@@@@@@@@@@@@",
"@@@@@@@@@@@@@@@@@@@@",
"@@@@@@@@@@@@@@@@@@@@",
"@@@@@@@@@@@@@@@@@@@@",
"@@@@@@@@@@@@@@@@@@@@",
"@@@@@@@@@@@@@@@@@@@@",
"@@@@@@@@@@@@@@@@@@@@",
"@@@@@@@@#@@@@@@$@@@@",
"@@@@@@@#%&@@@@*%=@@@",
"--------;%&--*%>----",
"---------;%;,%>-----",
"----------'%%)------",
"----------,%%'------",
"---------*%)!%&-----",
"--------*%>--;%&----",
"-------~%>----;%{---",
"--------]------^----",
"--------------------",
"--------------------",
"--------------------"};
