/* XPM */
static char * close_active_xpm[] = {
"24 28 17 1",
" 	c None",
".	c #767676",
"+	c #797979",
"@	c #B7B7B7",
"#	c #A5A5A5",
"$	c #9F9F9F",
"%	c #7F7F7F",
"&	c #A6A6A6",
"*	c #ABABAB",
"=	c #A1A1A1",
"-	c #A7A7A7",
";	c #ACACAC",
">	c #A8A8A8",
",	c #7B7B7B",
"'	c #848484",
")	c #808080",
"!	c #858585",
"                        ",
"                        ",
"                        ",
"                        ",
"                        ",
"                        ",
"                        ",
"                        ",
"                        ",
"                        ",
"                        ",
"        .      +        ",
"       .@#    $@%       ",
"        &@#  $@*        ",
"         &@&=@*         ",
"          -@@;          ",
"          =@@>          ",
"         $@;>@#         ",
"        $@*  &@#        ",
"       ,@*    &@'       ",
"        )      !        ",
"                        ",
"                        ",
"                        ",
"                        ",
"                        ",
"                        ",
"                        "};
