/* XPM */
static char * close_inactive_xpm[] = {
"20 23 19 1",
" 	c None",
".	c #464646",
"+	c #404040",
"@	c #3B3B3B",
"#	c #696969",
"$	c #6B6B6B",
"%	c #919191",
"&	c #868686",
"*	c #828282",
"=	c #6F6F6F",
"-	c #373737",
";	c #878787",
">	c #898989",
",	c #848484",
"'	c #8A8A8A",
")	c #888888",
"!	c #6C6C6C",
"~	c #717171",
"{	c #727272",
"....................",
"++++++++++++++++++++",
"@@@@@@@@@@@@@@@@@@@@",
"@@@@@@@@@@@@@@@@@@@@",
"@@@@@@@@@@@@@@@@@@@@",
"@@@@@@@@@@@@@@@@@@@@",
"@@@@@@@@@@@@@@@@@@@@",
"@@@@@@@@@@@@@@@@@@@@",
"@@@@@@@@@@@@@@@@@@@@",
"@@@@@@@@@@@@@@@@@@@@",
"@@@@@@@@#@@@@@@$@@@@",
"@@@@@@@#%&@@@@*%=@@@",
"--------;%&--*%>----",
"---------;%&,%>-----",
"----------;%%'------",
"----------,%%;------",
"---------*%')%&-----",
"--------*%>--;%&----",
"-------!%>----;%~---",
"--------=------{----",
"--------------------",
"--------------------",
"--------------------"};
