/* XPM */
static char * hide_active_xpm[] = {
"20 23 6 1",
" 	c None",
".	c #464646",
"+	c #404040",
"@	c #3B3B3B",
"#	c #373737",
"$	c #A9A9A9",
"....................",
"++++++++++++++++++++",
"@@@@@@@@@@@@@@@@@@@@",
"@@@@@@@@@@@@@@@@@@@@",
"@@@@@@@@@@@@@@@@@@@@",
"@@@@@@@@@@@@@@@@@@@@",
"@@@@@@@@@@@@@@@@@@@@",
"@@@@@@@@@@@@@@@@@@@@",
"@@@@@@@@@@@@@@@@@@@@",
"@@@@@@@@@@@@@@@@@@@@",
"@@@@@@@@@@@@@@@@@@@@",
"@@@@@@@@@@@@@@@@@@@@",
"####################",
"####################",
"#######$$$$$$$$$$###",
"#######$$$$$$$$$$###",
"####################",
"####################",
"####################",
"####################",
"####################",
"####################",
"####################"};
