/* XPM */
static char * maximize_prelight_xpm[] = {
"20 23 6 1",
" 	c None",
".	c #464646",
"+	c #404040",
"@	c #3B3B3B",
"#	c #CECECE",
"$	c #373737",
"....................",
"++++++++++++++++++++",
"@@@@@@@@@@@@@@@@@@@@",
"@@@@@@@@@@@@@@@@@@@@",
"@@@@@@@@@@@@@@@@@@@@",
"@@@@@@@@@@@@@@@@@@@@",
"@@@@@@@@@@@@@@@@@@@@",
"@@@@@@@@@@@@@@@@@@@@",
"@@@@@@@@@@@@@@@@@@@@",
"@@@@@@@@@@@@@@@@@@@@",
"@@@@@@@##########@@@",
"@@@@@@@##########@@@",
"$$$$$$$##$$$$$$##$$$",
"$$$$$$$##$$$$$$##$$$",
"$$$$$$$##$$$$$$##$$$",
"$$$$$$$##$$$$$$##$$$",
"$$$$$$$##$$$$$$##$$$",
"$$$$$$$##$$$$$$##$$$",
"$$$$$$$##########$$$",
"$$$$$$$##########$$$",
"$$$$$$$$$$$$$$$$$$$$",
"$$$$$$$$$$$$$$$$$$$$",
"$$$$$$$$$$$$$$$$$$$$"};
