/* XPM */
static char * maximize_pressed_xpm[] = {
"24 28 2 1",
" 	c None",
".	c #828282",
"                        ",
"                        ",
"                        ",
"                        ",
"                        ",
"                        ",
"                        ",
"                        ",
"                        ",
"                        ",
"                        ",
"       ..........       ",
"       ..........       ",
"       ..      ..       ",
"       ..      ..       ",
"       ..      ..       ",
"       ..      ..       ",
"       ..      ..       ",
"       ..      ..       ",
"       ..........       ",
"       ..........       ",
"                        ",
"                        ",
"                        ",
"                        ",
"                        ",
"                        ",
"                        "};
