/* XPM */
static char * menu_inactive_xpm[] = {
"20 24 14 1",
" 	c None",
".	c #3B3B3B",
"+	c #464646",
"@	c #404040",
"#	c #353535",
"$	c #2F2F2F",
"%	c #2B2B2B",
"&	c #333333",
"*	c #2D2D2D",
"=	c #373737",
"-	c #313131",
";	c #3F3F3F",
">	c #393939",
",	c #3D3D3D",
"....................",
"++++++++++++++++++++",
"@@@@@@@@@@@@@@@@@@@@",
"....................",
"....................",
"....................",
"....................",
"....................",
".......#$%%$#.......",
"......&******&......",
".....=$$$=#$$$=.....",
".....&-%&;.$*-&.....",
".....&-*&##-%&&.....",
"=====&-$>#==*&&=====",
"=====##*>,.#*#======",
"========$---========",
"======>>;++,>>======",
"=======>....>=======",
"====================",
"====================",
"====================",
"====================",
"====================",
"===================="};
