/* XPM */
static char * menu_active_xpm[] = {
"20 24 30 1",
" 	c None",
".	c #3B3B3B",
"+	c #464646",
"@	c #404040",
"#	c #353535",
"$	c #2F2F2F",
"%	c #2B2B2B",
"&	c #333333",
"*	c #2D2D2D",
"=	c #373737",
"-	c #4F4F4F",
";	c #3D3D3D",
">	c #313131",
",	c #6A6A6A",
"'	c #646464",
")	c #4B4B4B",
"!	c #393939",
"~	c #505050",
"{	c #535353",
"]	c #4C4C4C",
"^	c #434343",
"/	c #5F5F5F",
"(	c #565656",
"_	c #575757",
":	c #5B5B5B",
"<	c #676767",
"[	c #636363",
"}	c #474747",
"|	c #484848",
"1	c #3F3F3F",
"....................",
"++++++++++++++++++++",
"@@@@@@@@@@@@@@@@@@@@",
"....................",
"....................",
"....................",
"....................",
"....................",
".......#$%%$#.......",
"......&******&......",
".....=$$@--;$$=.....",
".....&>.-,')!>&.....",
".....&>;~{{]!&&.....",
"=====&>^/(__!&&=====",
"=====##=:<[_##======",
"=======!;}|1========",
"======!!1++;!!======",
"=======!....!=======",
"====================",
"====================",
"====================",
"====================",
"====================",
"===================="};
