/* XPM */
static char * menu_prelight_xpm[] = {
"20 24 39 1",
" 	c None",
".	c #3B3B3B",
"+	c #464646",
"@	c #404040",
"#	c #353535",
"$	c #2F2F2F",
"%	c #2B2B2B",
"&	c #333333",
"*	c #2D2D2D",
"=	c #373737",
"-	c #535353",
";	c #737373",
">	c #6E6E6E",
",	c #4A4A4A",
"'	c #313131",
")	c #484848",
"!	c #787878",
"~	c #959595",
"{	c #909090",
"]	c #434343",
"^	c #5F5F5F",
"/	c #7A7A7A",
"(	c #7E7E7E",
"_	c #777777",
":	c #505050",
"<	c #646464",
"[	c #898989",
"}	c #7F7F7F",
"|	c #808080",
"1	c #3F3F3F",
"2	c #878787",
"3	c #919191",
"4	c #8E8E8E",
"5	c #7B7B7B",
"6	c #3D3D3D",
"7	c #575757",
"8	c #565656",
"9	c #393939",
"0	c #444444",
"....................",
"++++++++++++++++++++",
"@@@@@@@@@@@@@@@@@@@@",
"....................",
"....................",
"....................",
"....................",
"....................",
".......#$%%$#.......",
"......&******&......",
".....=$$-;>,$$=.....",
".....&')!~{;]'&.....",
".....''^/((_:''.....",
"=====&'<[}||-&&=====",
"=====##12345=##=====",
"=======#6786========",
"======991+0699======",
"=======9....9=======",
"====================",
"====================",
"====================",
"====================",
"====================",
"===================="};
