/* XPM */
static char * menu_pressed_xpm[] = {
"20 24 31 1",
" 	c None",
".	c #3B3B3B",
"+	c #464646",
"@	c #404040",
"#	c #353535",
"$	c #2F2F2F",
"%	c #2B2B2B",
"&	c #333333",
"*	c #2D2D2D",
"=	c #373737",
"-	c #5E5E5E",
";	c #575757",
">	c #313131",
",	c #545454",
"'	c #7C7C7C",
")	c #777777",
"!	c #4C4C4C",
"~	c #3F3F3F",
"{	c #565656",
"]	c #5B5B5B",
"^	c #505050",
"/	c #434343",
"(	c #6B6B6B",
"_	c #606060",
":	c #393939",
"<	c #686868",
"[	c #787878",
"}	c #727272",
"|	c #5A5A5A",
"1	c #444444",
"2	c #3D3D3D",
"....................",
"++++++++++++++++++++",
"@@@@@@@@@@@@@@@@@@@@",
"....................",
"....................",
"....................",
"....................",
"....................",
".......#$%%$#.......",
"......&******&......",
".....=$$.-;#$$=.....",
".....&$>,')!$>&.....",
".....>$~{]]^=>>.....",
"=====&>/(]__:&&=====",
"=====##&<[}|###=====",
"=======#:/~:========",
"======::~+12::======",
"=======:....:=======",
"====================",
"====================",
"====================",
"====================",
"====================",
"===================="};
