/* XPM */
static char * title_1_inactive_xpm[] = {
"1 24 6 1",
" 	c None",
".	c #393939",
"+	c #444444",
"@	c #404040",
"#	c #3B3B3B",
"$	c #373737",
".",
"+",
"@",
"#",
"#",
"#",
"#",
"#",
"#",
"#",
"#",
"#",
".",
"$",
"$",
"$",
"$",
"$",
"$",
"$",
"$",
"$",
"$",
"$"};
