/* XPM */
static char * title_2_active_xpm[] = {
"2 24 5 1",
" 	c None",
".	c #3B3B3B",
"+	c #464646",
"@	c #404040",
"#	c #373737",
"..",
"++",
"@@",
"..",
"..",
"..",
"..",
"..",
"..",
"..",
"..",
"..",
"..",
"##",
"##",
"##",
"##",
"##",
"##",
"##",
"##",
"##",
"##",
"##"};
