/* XPM */
static char * top_left_active_xpm[] = {
"8 24 5 1",
" 	c None",
".	c #3B3B3B",
"+	c #464646",
"@	c #404040",
"#	c #373737",
"     ...",
"   ..+++",
"  .@@@@@",
" .......",
" .......",
"........",
"........",
"........",
"........",
"........",
"........",
"........",
"........",
".#######",
".#######",
".#######",
".#######",
".#######",
".#######",
".#######",
".#######",
".#######",
".#######",
".#######"};
